<?xml version="1.0" encoding="UTF-8"?>
<svg version="1.1" xmlns="http://www.w3.org/2000/svg" width="100" height="100">
<path d="M0 0 C33 0 66 0 100 0 C100 33 100 66 100 100 C67 100 34 100 0 100 C0 67 0 34 0 0 Z " fill="#FEFDFE" transform="translate(0,0)"/>
<path d="M0 0 C0.94488281 0.26490234 1.88976562 0.52980469 2.86328125 0.80273438 C3.76949219 1.06248047 4.67570312 1.32222656 5.609375 1.58984375 C6.42889648 1.82437256 7.24841797 2.05890137 8.09277344 2.30053711 C10.25 3.0625 10.25 3.0625 13.25 5.0625 C12.26 5.3925 11.27 5.7225 10.25 6.0625 C10.58 12.6625 10.91 19.2625 11.25 26.0625 C10.26 26.0625 9.27 26.0625 8.25 26.0625 C8.58 19.7925 8.91 13.5225 9.25 7.0625 C7.826875 7.495625 6.40375 7.92875 4.9375 8.375 C3.04183549 8.93806867 1.14599256 9.50053692 -0.75 10.0625 C-1.68457031 10.34867188 -2.61914062 10.63484375 -3.58203125 10.9296875 C-14.27613212 14.07061223 -21.29100165 12.95283864 -31.75 9.5625 C-32.81089844 9.22863281 -33.87179688 8.89476562 -34.96484375 8.55078125 C-37.56329136 7.73145092 -40.15796427 6.90185015 -42.75 6.0625 C-42.75 5.4025 -42.75 4.7425 -42.75 4.0625 C-39.89646179 3.10226175 -37.04220445 2.14425987 -34.1875 1.1875 C-33.38763672 0.91808594 -32.58777344 0.64867187 -31.76367188 0.37109375 C-30.17383726 -0.16101416 -28.58186563 -0.68678086 -26.98779297 -1.20605469 C-25.01801911 -1.84989524 -23.0570454 -2.52052821 -21.09765625 -3.1953125 C-13.92064057 -4.78648284 -6.89258468 -1.9932093 0 0 Z " fill="#0771F7" transform="translate(64.75,38.9375)"/>
<path d="M0 0 C1.0415625 0.26941406 2.083125 0.53882813 3.15625 0.81640625 C4.31640625 1.12384766 4.31640625 1.12384766 5.5 1.4375 C5.5 5.0675 5.5 8.6975 5.5 12.4375 C1.52151836 12.01871246 -1.99657704 11.59897529 -5.8125 10.375 C-13.74018854 8.35948596 -20.22405448 8.87377158 -27.5 12.4375 C-28.82 12.4375 -30.14 12.4375 -31.5 12.4375 C-31.5 9.1375 -31.5 5.8375 -31.5 2.4375 C-28.83846814 1.56342874 -26.17280152 0.71330796 -23.5 -0.125 C-22.75621094 -0.37185547 -22.01242188 -0.61871094 -21.24609375 -0.87304688 C-13.60438757 -3.23200835 -7.70467392 -2.01372159 0 0 Z " fill="#FCE86F" transform="translate(62.5,25.5625)"/>
<path d="M0 0 C0 3.63 0 7.26 0 11 C-2.68280408 11.87213766 -5.36955204 12.72276354 -8.0625 13.5625 C-8.81466797 13.80935547 -9.56683594 14.05621094 -10.34179688 14.31054688 C-17.86513121 16.6229137 -23.50073594 15.31419779 -30.9375 12.9375 C-32.08089844 12.57527344 -33.22429688 12.21304688 -34.40234375 11.83984375 C-35.25957031 11.56269531 -36.11679687 11.28554688 -37 11 C-37 7.7 -37 4.4 -37 1 C-33.38675085 1.44243867 -30.04638022 1.98566429 -26.5625 3.0625 C-18.41309384 5.20708057 -12.60405452 3.49648225 -4.7578125 0.875 C-2 0 -2 0 0 0 Z " fill="#700CB3" transform="translate(68,49)"/>
<path d="M0 0 C0 3.63 0 7.26 0 11 C-17.99576902 17.22127514 -17.99576902 17.22127514 -27 14 C-28.87421469 13.45562229 -30.74921142 12.91392949 -32.625 12.375 C-34.06875 11.92125 -35.5125 11.4675 -37 11 C-37 7.7 -37 4.4 -37 1 C-33.38675085 1.44243867 -30.04638022 1.98566429 -26.5625 3.0625 C-18.41309384 5.20708057 -12.60405452 3.49648225 -4.7578125 0.875 C-2 0 -2 0 0 0 Z " fill="#F22F94" transform="translate(68,61)"/>
<path d="M0 0 C0.66 0 1.32 0 2 0 C2 3.63 2 7.26 2 11 C-0.68280408 11.87213766 -3.36955204 12.72276354 -6.0625 13.5625 C-6.81466797 13.80935547 -7.56683594 14.05621094 -8.34179688 14.31054688 C-15.86513121 16.6229137 -21.50073594 15.31419779 -28.9375 12.9375 C-30.08089844 12.57527344 -31.22429688 12.21304688 -32.40234375 11.83984375 C-33.25957031 11.56269531 -34.11679687 11.28554688 -35 11 C-35 7.7 -35 4.4 -35 1 C-30.428721 1.54855348 -26.32564205 2.41744803 -22 4 C-22.375 5.9375 -22.375 5.9375 -23 8 C-23.99 8.495 -23.99 8.495 -25 9 C-25 9.99 -25 10.98 -25 12 C-18.29858629 13.62458514 -13.15545874 13.27380878 -6.8671875 10.66796875 C-4.51870543 9.8278214 -2.4710586 9.76833826 0 10 C-0.08378906 9.36191406 -0.16757813 8.72382812 -0.25390625 8.06640625 C-0.40666016 6.82697266 -0.40666016 6.82697266 -0.5625 5.5625 C-0.71912109 4.32693359 -0.71912109 4.32693359 -0.87890625 3.06640625 C-0.93884766 2.04353516 -0.93884766 2.04353516 -1 1 C-0.67 0.67 -0.34 0.34 0 0 Z " fill="#6D0AB1" transform="translate(66,49)"/>
<path d="M0 0 C0.0272616 2.04159095 0.04651345 4.08328963 0.0625 6.125 C0.07410156 7.26195312 0.08570313 8.39890625 0.09765625 9.5703125 C0.005327 12.8129156 -0.38610094 15.81932612 -1 19 C-0.01 19.33 0.98 19.66 2 20 C0.68 20 -0.64 20 -2 20 C-2.495 16.04 -2.495 16.04 -3 12 C-3.66 12 -4.32 12 -5 12 C-5 9.03 -5 6.06 -5 3 C-6.59328125 3.54140625 -6.59328125 3.54140625 -8.21875 4.09375 C-9.64563005 4.56311844 -11.07272511 5.03183359 -12.5 5.5 C-13.19609375 5.73847656 -13.8921875 5.97695313 -14.609375 6.22265625 C-22.39379869 8.74538615 -28.58660598 8.43489047 -36.5 6 C-37.7271875 5.62875 -38.954375 5.2575 -40.21875 4.875 C-41.1365625 4.58625 -42.054375 4.2975 -43 4 C-43 6.97 -43 9.94 -43 13 C-43.33 13 -43.66 13 -44 13 C-44.06058594 12.30132812 -44.12117188 11.60265625 -44.18359375 10.8828125 C-44.26738281 9.97273438 -44.35117187 9.06265625 -44.4375 8.125 C-44.51871094 7.22007813 -44.59992187 6.31515625 -44.68359375 5.3828125 C-44.86989285 2.98889139 -44.86989285 2.98889139 -46 1 C-40.96531376 1.5472485 -36.5057947 2.70999818 -31.72265625 4.37890625 C-24.6759757 5.98639866 -18.94524953 4.70003759 -12.25 2.5 C-8.06199364 1.15255448 -4.45995943 0 0 0 Z " fill="#D8D9FC" transform="translate(74,46)"/>
<path d="M0 0 C-1.98 2.97 -1.98 2.97 -4 6 C-2.68 6.66 -1.36 7.32 0 8 C-13.2 10.2 -13.2 10.2 -18 7 C-17.34 7 -16.68 7 -16 7 C-16.33 6.01 -16.66 5.02 -17 4 C-16.34 4 -15.68 4 -15 4 C-14.67 3.01 -14.34 2.02 -14 1 C-4.58997722 -0.14806378 -4.58997722 -0.14806378 0 0 Z " fill="#F42A93" transform="translate(60,66)"/>
<path d="M0 0 C6.625 0.75 6.625 0.75 10 3 C9.01 3.33 8.02 3.66 7 4 C7.33 10.6 7.66 17.2 8 24 C7.01 24 6.02 24 5 24 C5.33 17.73 5.66 11.46 6 5 C4.246875 5.495 2.49375 5.99 0.6875 6.5 C-2.38516529 7.36757608 -4.7997785 8 -8 8 C-8 7.34 -8 6.68 -8 6 C-5.36 5.67 -2.72 5.34 0 5 C0 3.35 0 1.7 0 0 Z " fill="#2B76D3" transform="translate(68,41)"/>
<path d="M0 0 C0.0272616 2.04159095 0.04651345 4.08328963 0.0625 6.125 C0.07410156 7.26195312 0.08570312 8.39890625 0.09765625 9.5703125 C0.005327 12.8129156 -0.38610094 15.81932612 -1 19 C-0.01 19.33 0.98 19.66 2 20 C0.68 20 -0.64 20 -2 20 C-2.33 17.36 -2.66 14.72 -3 12 C-3.66 12 -4.32 12 -5 12 C-5 9.03 -5 6.06 -5 3 C-5.66 3 -6.32 3 -7 3 C-7 2.34 -7 1.68 -7 1 C-4 0 -4 0 0 0 Z " fill="#FBFDFB" transform="translate(74,46)"/>
<path d="M0 0 C0.66 0 1.32 0 2 0 C2 3.63 2 7.26 2 11 C-0.68280408 11.87213766 -3.36955204 12.72276354 -6.0625 13.5625 C-6.81466797 13.80935547 -7.56683594 14.05621094 -8.34179688 14.31054688 C-15.80830368 16.60544724 -21.6956855 15.23601464 -29 13 C-25.60832521 11.86944174 -23.45510019 12.2768395 -20 13 C-14.91252099 13.38396068 -11.47161019 12.57602718 -6.8671875 10.66796875 C-4.51870543 9.8278214 -2.4710586 9.76833826 0 10 C-0.12568359 9.04287109 -0.12568359 9.04287109 -0.25390625 8.06640625 C-0.35574219 7.24011719 -0.45757812 6.41382813 -0.5625 5.5625 C-0.66691406 4.73878906 -0.77132812 3.91507813 -0.87890625 3.06640625 C-0.91886719 2.38449219 -0.95882812 1.70257813 -1 1 C-0.67 0.67 -0.34 0.34 0 0 Z " fill="#7C2EAC" transform="translate(66,49)"/>
<path d="M0 0 C-3.53589738 1.9673414 -7.17939398 3.02254088 -11.0625 4.125 C-12.29097656 4.47820313 -13.51945312 4.83140625 -14.78515625 5.1953125 C-18 6 -18 6 -21 6 C-21 9.3 -21 12.6 -21 16 C-20.34 16.33 -19.68 16.66 -19 17 C-20.32 17 -21.64 17 -23 17 C-23.22245393 15.39773045 -23.42746669 13.79303233 -23.625 12.1875 C-23.74101562 11.29417969 -23.85703125 10.40085937 -23.9765625 9.48046875 C-24 7 -24 7 -22 4 C-19.20600501 3.12705904 -16.53762042 2.42443062 -13.6875 1.8125 C-12.92759766 1.63525391 -12.16769531 1.45800781 -11.38476562 1.27539062 C-7.52800083 0.40753478 -3.97912925 -0.23032884 0 0 Z " fill="#FEFDE1" transform="translate(52,22)"/>
<path d="M0 0 C3.61324915 0.44243867 6.95361978 0.98566429 10.4375 2.0625 C17.29401737 3.86684668 22.22984701 2.95292875 29 1 C31.4375 1.375 31.4375 1.375 33 2 C26.51840367 6.32106422 17.52972162 5.64636406 10 5 C6.66806611 3.97582166 4.0715776 2.69466351 1 1 C1.33 3.97 1.66 6.94 2 10 C1.34 10 0.68 10 0 10 C0 6.7 0 3.4 0 0 Z " fill="#DE4294" transform="translate(31,62)"/>
<path d="M0 0 C-3.72965139 2.03435531 -5.66905042 3 -10 3 C-10 3.66 -10 4.32 -10 5 C-11.65 5 -13.3 5 -15 5 C-15 5.66 -15 6.32 -15 7 C-13.35 7.33 -11.7 7.66 -10 8 C-13.81489674 9.46726798 -16.29011622 8.43336419 -20 7 C-20 6.34 -20 5.68 -20 5 C-17.04575985 3.96703956 -14.08605927 2.95073045 -11.125 1.9375 C-10.28324219 1.64294922 -9.44148438 1.34839844 -8.57421875 1.04492188 C-7.76855469 0.77099609 -6.96289062 0.49707031 -6.1328125 0.21484375 C-5.38918457 -0.04176025 -4.64555664 -0.29836426 -3.87939453 -0.56274414 C-2 -1 -2 -1 0 0 Z " fill="#2E7FE3" transform="translate(42,38)"/>
<path d="M0 0 C-3.47766586 1.21518439 -5.3965444 0.74803417 -8.8125 -0.5 C-13.33639779 -1.95505484 -16.29523505 -2.02649417 -21 -1 C-22.64393055 -0.79649091 -24.2899683 -0.60943867 -25.9375 -0.4375 C-26.70964844 -0.35371094 -27.48179688 -0.26992188 -28.27734375 -0.18359375 C-28.84582031 -0.12300781 -29.41429687 -0.06242187 -30 0 C-19.9563158 -6.69578947 -10.77981969 -4.21410054 0 0 Z " fill="#DBEFEC" transform="translate(65,38)"/>
<path d="M0 0 C-5.445 1.485 -5.445 1.485 -11 3 C-11 5.31 -11 7.62 -11 10 C-9.35 10 -7.7 10 -6 10 C-9 12 -9 12 -13 12 C-13 8.7 -13 5.4 -13 2 C-4.5 -1.125 -4.5 -1.125 0 0 Z " fill="#F6E992" transform="translate(44,26)"/>
<path d="M0 0 C6.625 0.75 6.625 0.75 10 3 C7.36 2.67 4.72 2.34 2 2 C2 4.31 2 6.62 2 9 C2.99 9.33 3.98 9.66 5 10 C4.01 10.495 4.01 10.495 3 11 C2.01 10.67 1.02 10.34 0 10 C0 6.7 0 3.4 0 0 Z " fill="#6A1B9B" transform="translate(31,50)"/>
<path d="M0 0 C1.32 0 2.64 0 4 0 C4.0272616 2.04159095 4.04651345 4.08328963 4.0625 6.125 C4.07410156 7.26195312 4.08570312 8.39890625 4.09765625 9.5703125 C4.005327 12.8129156 3.61389906 15.81932612 3 19 C3.99 19.33 4.98 19.66 6 20 C4.68 20 3.36 20 2 20 C1.06942578 14.41655469 1.10029288 9.7032041 1.94140625 4.1015625 C1.96074219 3.40804687 1.98007813 2.71453125 2 2 C1.34 1.34 0.68 0.68 0 0 Z " fill="#C1DEF8" transform="translate(70,46)"/>
<path d="M0 0 C0 3.63 0 7.26 0 11 C-2.64 11.33 -5.28 11.66 -8 12 C-7.34 11.34 -6.68 10.68 -6 10 C-4.68 10 -3.36 10 -2 10 C-2.48484276 5.35413108 -2.48484276 5.35413108 -4 1 C-2 0 -2 0 0 0 Z " fill="#E44F9E" transform="translate(68,61)"/>
<path d="M0 0 C0 0.99 0 1.98 0 3 C-1.98 3.99 -3.96 4.98 -6 6 C-6.66 4.35 -7.32 2.7 -8 1 C-5.10765685 0.17361624 -3.11257569 0 0 0 Z " fill="#7215AD" transform="translate(64,51)"/>
<path d="M0 0 C5.63281599 -0.2396943 10.54538831 0.61470179 16 2 C13.33874255 3.79570284 12.21888938 4.03345719 8.984375 3.5390625 C7.38335937 3.08660156 7.38335937 3.08660156 5.75 2.625 C4.67234375 2.32851563 3.5946875 2.03203125 2.484375 1.7265625 C1.66453125 1.48679688 0.8446875 1.24703125 0 1 C0 0.67 0 0.34 0 0 Z " fill="#D0CDF7" transform="translate(35,50)"/>
<path d="M0 0 C-0.33 0.66 -0.66 1.32 -1 2 C0.65 2.33 2.3 2.66 4 3 C0.18510326 4.46726798 -2.29011622 3.43336419 -6 2 C-6 1.34 -6 0.68 -6 0 C-3.50907189 -1.24546405 -2.58919267 -0.7767578 0 0 Z " fill="#2576D9" transform="translate(28,43)"/>
<path d="M0 0 C3.63 0 7.26 0 11 0 C11.33 0.99 11.66 1.98 12 3 C8.875 2.47916667 5.75 1.95833333 2.625 1.4375 C1.75875 1.293125 0.8925 1.14875 0 1 C0 0.67 0 0.34 0 0 Z " fill="#F9EE9F" transform="translate(47,33)"/>
<path d="M0 0 C1.65 0 3.3 0 5 0 C5.33 1.65 5.66 3.3 6 5 C5.01 5 4.02 5 3 5 C2.67 4.01 2.34 3.02 2 2 C1.34 2 0.68 2 0 2 C0 1.34 0 0.68 0 0 Z " fill="#ECFAFE" transform="translate(67,47)"/>
<path d="M0 0 C3.37462715 0.54723683 5.08235 1.0549 8 3 C6.35 3.66 4.7 4.32 3 5 C1.5 3.625 1.5 3.625 0 2 C0 1.34 0 0.68 0 0 Z " fill="#307BE0" transform="translate(70,41)"/>
</svg>
