<svg width="318" height="145" viewBox="0 0 318 145" fill="#f7e927" xmlns="http://www.w3.org/2000/svg">
<path d="M69.0495 65.8906C49.3808 84.9057 25.7623 96.2861 20.5098 98.6853L24.2896 120.119C27.7257 120.463 38.3891 121.718 51.6875 124.909L51.897 126.097C52.2165 127.91 51.0019 129.645 49.1885 129.965L24.7576 134.273C22.9449 134.593 21.2099 133.378 20.8903 131.565L18.7285 119.306L20.5129 118.992L17.3412 101.007L6.3829 102.939C5.76252 103.049 5.39651 103.842 5.21869 105.027L1.69825 105.648C-0.61749 106.056 1.91048 120.39 4.22489 119.975L7.74534 119.354C8.31896 120.413 8.93424 121.034 9.55463 120.924L15.0706 119.951L17.2324 132.21C17.9077 136.04 21.5729 138.606 25.4026 137.931L49.8338 133.622C53.5166 132.973 56.022 129.558 55.6094 125.892C63.659 127.972 72.447 130.748 81.0851 134.433C82.9464 127.567 82.698 114.221 80.0516 99.216C77.4234 84.312 73.125 71.7476 69.0495 65.8906Z" fill="#f7e927"/>
<path d="M74.2477 60.5813C73.1571 60.7736 72.2555 61.7565 71.5508 63.3952C76.0163 68.1146 81.0373 81.8638 83.9757 98.5261C86.9239 115.243 86.8961 129.914 84.2907 135.843C84.3383 135.866 84.3916 135.888 84.4407 135.911C85.621 137.117 86.766 137.694 87.8143 137.51C92.8628 136.619 93.9228 118.673 90.1769 97.4327C86.4309 76.1918 79.2962 59.691 74.2477 60.5813Z" fill="#f7e927"/>
<path d="M146.645 74.47C149.567 73.7189 152.11 72.5109 154.274 70.843C156.438 69.1768 158.143 67.1346 159.391 64.7141L152.274 60.3828C150.703 63.3174 148.658 65.1081 146.137 65.7553C144.017 66.2998 142.228 66.026 140.768 64.9343C139.309 63.8427 138.437 62.0987 138.151 59.7025C137.865 57.3052 138.282 55.2302 139.402 53.4766C140.522 51.7234 142.141 50.5736 144.262 50.0291C146.783 49.3814 149.121 50.0477 151.277 52.0247L156.968 44.4048C155.235 42.7508 153.159 41.6783 150.738 41.1883C148.317 40.699 145.645 40.8292 142.723 41.5791C139.542 42.3958 136.76 43.8279 134.376 45.8761C131.991 47.9231 130.224 50.3839 129.077 53.2566C127.928 56.1295 127.543 59.1536 127.922 62.3282C128.3 65.5029 129.363 68.1564 131.107 70.2855C132.852 72.4152 135.083 73.849 137.8 74.5874C140.516 75.3258 143.464 75.2862 146.645 74.47Z" fill="#f7e927"/>
<path d="M182.572 52.5773C182.112 53.9157 181.411 55.0376 180.471 55.9427C179.53 56.8477 178.43 57.4622 177.169 57.7859C175.908 58.1094 174.73 58.0798 173.637 57.6973C172.543 57.3143 171.625 56.6083 170.881 55.5793C170.139 54.5512 169.673 53.2431 169.484 51.6551C169.295 50.0673 169.43 48.6056 169.89 47.2672C170.351 45.9293 171.052 44.8085 171.992 43.9025C172.932 42.9978 174.033 42.3835 175.294 42.0593C176.554 41.7357 177.731 41.7659 178.825 42.1483C179.92 42.5318 180.838 43.2367 181.581 44.2652C182.324 45.2944 182.79 46.6025 182.979 48.1903C183.169 49.7782 183.034 51.2401 182.572 52.5773ZM192.027 54.5959C193.189 51.7198 193.584 48.709 193.209 45.5639C192.834 42.4184 191.766 39.7829 190.007 37.6565C188.247 35.5316 185.994 34.095 183.247 33.3499C180.5 32.6032 177.508 32.6465 174.271 33.4775C171.033 34.3089 168.209 35.7596 165.797 37.83C163.387 39.8998 161.599 42.3732 160.436 45.2486C159.273 48.1256 158.879 51.136 159.254 54.2816C159.629 57.4266 160.697 60.0626 162.456 62.1885C164.216 64.3144 166.47 65.7502 169.216 66.4954C171.962 67.2411 174.954 67.1988 178.192 66.3672C181.43 65.5357 184.254 64.0844 186.665 62.0146C189.077 59.9457 190.864 57.4729 192.027 54.5959Z" fill="#f7e927"/>
<path d="M231.052 19.6406L222.714 21.7818L215.171 40.9913L203.373 26.7477L195.035 28.8886L198.786 60.3406L208.026 57.9679L206.376 44.1293L214.222 53.4601L218.691 52.3123L223.853 39.1323L225.648 53.4436L234.889 51.0709L231.052 19.6406Z" fill="#f7e927"/>
<path d="M249.932 47.2098L246.182 15.7578L236.039 18.3622L239.789 49.814L249.932 47.2098Z" fill="#f7e927"/>
<path d="M264.717 43.4153L263.013 29.1272L276.15 40.4795L284.488 38.3387L280.738 6.88672L270.852 9.42539L272.556 23.7138L259.419 12.3605L251.082 14.5014L254.832 45.9533L264.717 43.4153Z" fill="#f7e927"/>
<path d="M289.499 29.6199C291.244 31.7495 293.474 33.1833 296.191 33.9215C298.907 34.6598 301.87 34.6165 305.079 33.7923C307.342 33.2118 309.608 32.2744 311.875 30.9826C314.142 29.6902 316.088 28.1723 317.711 26.4277L316.125 13.128L307.314 15.3901L308.263 23.3431C307.148 24.155 305.947 24.7255 304.657 25.0564C302.48 25.6157 300.653 25.3434 299.178 24.2407C297.703 23.1374 296.824 21.4029 296.542 19.0366C296.253 16.6098 296.683 14.524 297.833 12.7773C298.983 11.0316 300.676 9.87066 302.911 9.29654C305.518 8.62709 307.905 9.20384 310.072 11.0242L315.849 3.38198C314.066 1.80205 311.945 0.795245 309.486 0.361569C307.027 -0.0716125 304.323 0.0899051 301.372 0.847767C298.105 1.68631 295.258 3.13469 292.831 5.19408C290.404 7.25214 288.616 9.71819 287.468 12.5909C286.319 15.4637 285.934 18.4879 286.312 21.6626C286.691 24.8372 287.753 27.4907 289.499 29.6199Z" fill="#f7e927"/>
<path d="M174.321 93.4942C172.606 92.1675 170.677 91.3862 168.536 91.1521C166.394 90.9196 163.798 90.9014 160.745 91.0737C158.376 91.2073 156.665 91.187 155.609 91.0367C154.554 90.8859 153.977 90.4017 153.879 89.5829C153.675 87.8678 155.269 86.574 158.663 85.7027C162.093 84.8218 165.849 84.9025 169.932 85.9426L172.712 74.924C170.596 74.262 168.206 73.9628 165.543 74.0232C162.878 74.0842 160.205 74.4591 157.519 75.1488C153.604 76.1539 150.348 77.6137 147.752 79.525C145.155 81.437 143.292 83.6229 142.163 86.0824C141.034 88.542 140.624 91.0579 140.93 93.6302C141.284 96.5936 142.309 98.7513 144.008 100.102C145.706 101.454 147.608 102.251 149.712 102.494C151.817 102.738 154.418 102.803 157.518 102.69C159.928 102.594 161.67 102.628 162.748 102.794C163.823 102.96 164.413 103.472 164.515 104.328C164.604 105.069 164.278 105.725 163.54 106.296C162.801 106.868 161.517 107.388 159.69 107.857C157.565 108.403 155.305 108.632 152.912 108.543C150.518 108.455 148.322 108.085 146.323 107.432L143.271 118.582C145.401 119.36 148.05 119.735 151.217 119.705C154.384 119.675 157.59 119.244 160.834 118.411C164.749 117.406 168.004 115.938 170.599 114.006C173.193 112.074 175.055 109.889 176.186 107.449C177.317 105.01 177.73 102.502 177.423 99.9298C177.07 96.9675 176.036 94.8225 174.321 93.4942Z" fill="#f7e927"/>
<path d="M209.216 89.5053C208.617 91.2472 207.705 92.7063 206.482 93.8837C205.257 95.0627 203.825 95.8619 202.184 96.2829C200.543 96.7046 199.011 96.6664 197.588 96.167C196.164 95.6703 194.969 94.7512 194.002 93.4118C193.036 92.0734 192.429 90.3711 192.182 88.305C191.936 86.2389 192.113 84.3354 192.712 82.5945C193.312 80.853 194.223 79.3944 195.447 78.2154C196.67 77.038 198.103 76.2382 199.744 75.8165C201.384 75.3955 202.917 75.4342 204.341 75.9321C205.764 76.4305 206.959 77.3488 207.926 78.6877C208.892 80.0266 209.499 81.7294 209.746 83.7955C209.992 85.8618 209.816 87.7648 209.216 89.5053ZM218.892 70.0872C216.601 67.3215 213.669 65.4524 210.095 64.481C206.52 63.5112 202.625 63.5662 198.412 64.6484C194.198 65.7305 190.523 67.6185 187.386 70.3122C184.247 73.007 181.922 76.2256 180.409 79.968C178.895 83.7116 178.382 87.6292 178.87 91.7234C179.358 95.8163 180.747 99.2468 183.037 102.013C185.327 104.78 188.259 106.648 191.834 107.619C195.408 108.588 199.302 108.533 203.516 107.452C207.729 106.37 211.405 104.481 214.543 101.788C217.681 99.0939 220.006 95.8759 221.52 92.1319C223.034 88.3895 223.546 84.4706 223.058 80.3775C222.57 76.2833 221.181 72.8539 218.892 70.0872Z" fill="#f7e927"/>
<path d="M256.65 77.3293C256.05 79.0707 255.139 80.5305 253.915 81.7078C252.691 82.8862 251.259 83.6854 249.618 84.1066C247.977 84.528 246.445 84.4905 245.022 83.991C243.598 83.4936 242.403 82.5749 241.435 81.2353C240.47 79.8974 239.862 78.1953 239.616 76.1292C239.37 74.063 239.546 72.1596 240.146 70.418C240.745 68.6772 241.657 67.2179 242.881 66.0394C244.104 64.862 245.537 64.0618 247.177 63.6402C248.818 63.2192 250.35 63.2579 251.775 63.7561C253.198 64.2544 254.393 65.1724 255.36 66.5119C256.326 67.8508 256.933 69.5531 257.179 71.6192C257.426 73.6855 257.249 75.589 256.65 77.3293ZM266.325 57.9108C264.035 55.1451 261.102 53.2764 257.528 52.3052C253.953 51.3354 250.059 51.3906 245.846 52.4726C241.631 53.5542 237.956 55.4428 234.819 58.1361C231.681 60.8308 229.355 64.0495 227.842 67.7919C226.328 71.5352 225.815 75.4535 226.304 79.5477C226.791 83.6406 228.181 87.0707 230.471 89.8364C232.76 92.6044 235.693 94.4723 239.268 95.4427C242.842 96.4125 246.735 96.3573 250.95 95.2759C255.163 94.1939 258.839 92.3052 261.977 89.612C265.114 86.9182 267.44 83.6996 268.954 79.9555C270.467 76.2131 270.98 72.2949 270.492 68.2018C270.004 64.1076 268.615 60.6775 266.325 57.9108Z" fill="#f7e927"/>
<path d="M298.585 39.8894L300.803 58.4849L283.707 43.7097L272.855 46.4961L277.737 87.4286L290.601 84.1251L288.384 65.5301L305.48 80.3049L316.331 77.5186L311.45 36.5859L298.585 39.8894Z" fill="#f7e927"/>
<path d="M128.442 87.6911L102.73 93.5508L103.213 95.6661L128.924 89.8064L128.442 87.6911Z" fill="#f7e927"/>
<path d="M114.068 59.8043L95.1055 76.3203L96.5301 77.956L115.493 61.44L114.068 59.8043Z" fill="#f7e927"/>
<path d="M100.094 38.7033L83.1055 60.2773L84.8099 61.6195L101.798 40.0455L100.094 38.7033Z" fill="#f7e927"/>
<path d="M105.386 111.071L105.223 113.234L129.971 115.098L130.134 112.935L105.386 111.071Z" fill="#f7e927"/>
<path d="M101.716 130.721L100.816 132.695L127.55 144.878L128.449 142.904L101.716 130.721Z" fill="#f7e927"/>
</svg>
